<mxfile host="app.diagrams.net" agent="Mozilla/5.0 (Windows NT 10.0; Win64; x64) AppleWebKit/537.36 (KHTML, like Gecko) Chrome/135.0.0.0 Safari/537.36" version="26.2.13">
  <diagram name="페이지-1" id="AD-Na4UHNapUfKJquxEh">
    <mxGraphModel dx="1190" dy="584" grid="1" gridSize="10" guides="1" tooltips="1" connect="1" arrows="1" fold="1" page="1" pageScale="1" pageWidth="827" pageHeight="1169" math="0" shadow="0">
      <root>
        <mxCell id="0" />
        <mxCell id="1" parent="0" />
        <mxCell id="Ib-lwfsmfBtbOKuAcP7K-32" style="edgeStyle=orthogonalEdgeStyle;rounded=0;orthogonalLoop=1;jettySize=auto;html=1;endArrow=none;startFill=0;" edge="1" parent="1" source="Ib-lwfsmfBtbOKuAcP7K-1" target="Ib-lwfsmfBtbOKuAcP7K-2">
          <mxGeometry relative="1" as="geometry">
            <Array as="points">
              <mxPoint x="420" y="100" />
              <mxPoint x="255" y="100" />
            </Array>
          </mxGeometry>
        </mxCell>
        <mxCell id="Ib-lwfsmfBtbOKuAcP7K-33" style="edgeStyle=orthogonalEdgeStyle;rounded=0;orthogonalLoop=1;jettySize=auto;html=1;entryX=0.5;entryY=0;entryDx=0;entryDy=0;endArrow=none;startFill=0;" edge="1" parent="1" source="Ib-lwfsmfBtbOKuAcP7K-1" target="Ib-lwfsmfBtbOKuAcP7K-3">
          <mxGeometry relative="1" as="geometry" />
        </mxCell>
        <mxCell id="Ib-lwfsmfBtbOKuAcP7K-34" style="edgeStyle=orthogonalEdgeStyle;rounded=0;orthogonalLoop=1;jettySize=auto;html=1;endArrow=none;startFill=0;" edge="1" parent="1" source="Ib-lwfsmfBtbOKuAcP7K-1" target="Ib-lwfsmfBtbOKuAcP7K-17">
          <mxGeometry relative="1" as="geometry">
            <Array as="points">
              <mxPoint x="420" y="100" />
              <mxPoint x="585" y="100" />
            </Array>
          </mxGeometry>
        </mxCell>
        <mxCell id="Ib-lwfsmfBtbOKuAcP7K-1" value="Home" style="rounded=0;whiteSpace=wrap;html=1;fillColor=#f8cecc;strokeColor=#b85450;" vertex="1" parent="1">
          <mxGeometry x="320" y="50" width="200" height="40" as="geometry" />
        </mxCell>
        <mxCell id="Ib-lwfsmfBtbOKuAcP7K-35" style="edgeStyle=orthogonalEdgeStyle;rounded=0;orthogonalLoop=1;jettySize=auto;html=1;entryX=0;entryY=0.5;entryDx=0;entryDy=0;endArrow=none;endFill=1;startFill=0;" edge="1" parent="1" source="Ib-lwfsmfBtbOKuAcP7K-2" target="Ib-lwfsmfBtbOKuAcP7K-4">
          <mxGeometry relative="1" as="geometry">
            <Array as="points">
              <mxPoint x="200" y="170" />
            </Array>
          </mxGeometry>
        </mxCell>
        <mxCell id="Ib-lwfsmfBtbOKuAcP7K-36" style="edgeStyle=orthogonalEdgeStyle;rounded=0;orthogonalLoop=1;jettySize=auto;html=1;entryX=0;entryY=0.5;entryDx=0;entryDy=0;endArrow=none;endFill=1;startFill=0;" edge="1" parent="1" source="Ib-lwfsmfBtbOKuAcP7K-2" target="Ib-lwfsmfBtbOKuAcP7K-5">
          <mxGeometry relative="1" as="geometry">
            <Array as="points">
              <mxPoint x="200" y="200" />
            </Array>
          </mxGeometry>
        </mxCell>
        <mxCell id="Ib-lwfsmfBtbOKuAcP7K-37" style="edgeStyle=orthogonalEdgeStyle;rounded=0;orthogonalLoop=1;jettySize=auto;html=1;entryX=0;entryY=0.5;entryDx=0;entryDy=0;endArrow=none;endFill=1;startFill=0;" edge="1" parent="1" source="Ib-lwfsmfBtbOKuAcP7K-2" target="Ib-lwfsmfBtbOKuAcP7K-6">
          <mxGeometry relative="1" as="geometry">
            <Array as="points">
              <mxPoint x="200" y="270" />
            </Array>
          </mxGeometry>
        </mxCell>
        <mxCell id="Ib-lwfsmfBtbOKuAcP7K-2" value="D-Day" style="rounded=0;whiteSpace=wrap;html=1;fillColor=#f5f5f5;fontColor=#333333;strokeColor=#666666;" vertex="1" parent="1">
          <mxGeometry x="190" y="110" width="130" height="30" as="geometry" />
        </mxCell>
        <mxCell id="Ib-lwfsmfBtbOKuAcP7K-38" style="edgeStyle=orthogonalEdgeStyle;rounded=0;orthogonalLoop=1;jettySize=auto;html=1;entryX=0;entryY=0.5;entryDx=0;entryDy=0;endArrow=none;startFill=0;" edge="1" parent="1" source="Ib-lwfsmfBtbOKuAcP7K-3" target="Ib-lwfsmfBtbOKuAcP7K-13">
          <mxGeometry relative="1" as="geometry">
            <Array as="points">
              <mxPoint x="365" y="170" />
            </Array>
          </mxGeometry>
        </mxCell>
        <mxCell id="Ib-lwfsmfBtbOKuAcP7K-3" value="캘린더" style="rounded=0;whiteSpace=wrap;html=1;fillColor=#f5f5f5;fontColor=#333333;strokeColor=#666666;" vertex="1" parent="1">
          <mxGeometry x="355" y="110" width="130" height="30" as="geometry" />
        </mxCell>
        <mxCell id="Ib-lwfsmfBtbOKuAcP7K-4" value="D-Day 추가" style="rounded=0;whiteSpace=wrap;html=1;fillColor=#f5f5f5;fontColor=#333333;strokeColor=#666666;" vertex="1" parent="1">
          <mxGeometry x="220" y="160" width="100" height="20" as="geometry" />
        </mxCell>
        <mxCell id="Ib-lwfsmfBtbOKuAcP7K-5" value="D-Day 상세정보" style="rounded=0;whiteSpace=wrap;html=1;fillColor=#f5f5f5;fontColor=#333333;strokeColor=#666666;" vertex="1" parent="1">
          <mxGeometry x="220" y="190" width="100" height="20" as="geometry" />
        </mxCell>
        <mxCell id="Ib-lwfsmfBtbOKuAcP7K-6" value="D-Day 수정" style="rounded=0;whiteSpace=wrap;html=1;fillColor=#f5f5f5;fontColor=#333333;strokeColor=#666666;" vertex="1" parent="1">
          <mxGeometry x="220" y="260" width="100" height="20" as="geometry" />
        </mxCell>
        <mxCell id="Ib-lwfsmfBtbOKuAcP7K-13" value="D-Day 추가" style="rounded=0;whiteSpace=wrap;html=1;fillColor=#f5f5f5;fontColor=#333333;strokeColor=#666666;" vertex="1" parent="1">
          <mxGeometry x="385" y="160" width="100" height="20" as="geometry" />
        </mxCell>
        <mxCell id="Ib-lwfsmfBtbOKuAcP7K-39" style="edgeStyle=orthogonalEdgeStyle;rounded=0;orthogonalLoop=1;jettySize=auto;html=1;entryX=0;entryY=0.5;entryDx=0;entryDy=0;endArrow=none;startFill=0;" edge="1" parent="1" source="Ib-lwfsmfBtbOKuAcP7K-17" target="Ib-lwfsmfBtbOKuAcP7K-31">
          <mxGeometry relative="1" as="geometry">
            <Array as="points">
              <mxPoint x="530" y="170" />
            </Array>
          </mxGeometry>
        </mxCell>
        <mxCell id="Ib-lwfsmfBtbOKuAcP7K-40" style="edgeStyle=orthogonalEdgeStyle;rounded=0;orthogonalLoop=1;jettySize=auto;html=1;entryX=0;entryY=0.5;entryDx=0;entryDy=0;endArrow=none;startFill=0;" edge="1" parent="1" source="Ib-lwfsmfBtbOKuAcP7K-17" target="Ib-lwfsmfBtbOKuAcP7K-23">
          <mxGeometry relative="1" as="geometry">
            <Array as="points">
              <mxPoint x="530" y="200" />
            </Array>
          </mxGeometry>
        </mxCell>
        <mxCell id="Ib-lwfsmfBtbOKuAcP7K-41" style="edgeStyle=orthogonalEdgeStyle;rounded=0;orthogonalLoop=1;jettySize=auto;html=1;entryX=0;entryY=0.5;entryDx=0;entryDy=0;endArrow=none;startFill=0;" edge="1" parent="1" source="Ib-lwfsmfBtbOKuAcP7K-17" target="Ib-lwfsmfBtbOKuAcP7K-20">
          <mxGeometry relative="1" as="geometry">
            <Array as="points">
              <mxPoint x="530" y="290" />
            </Array>
          </mxGeometry>
        </mxCell>
        <mxCell id="Ib-lwfsmfBtbOKuAcP7K-42" style="edgeStyle=orthogonalEdgeStyle;rounded=0;orthogonalLoop=1;jettySize=auto;html=1;entryX=0;entryY=0.5;entryDx=0;entryDy=0;endArrow=none;startFill=0;" edge="1" parent="1" source="Ib-lwfsmfBtbOKuAcP7K-17" target="Ib-lwfsmfBtbOKuAcP7K-21">
          <mxGeometry relative="1" as="geometry">
            <Array as="points">
              <mxPoint x="530" y="320" />
            </Array>
          </mxGeometry>
        </mxCell>
        <mxCell id="Ib-lwfsmfBtbOKuAcP7K-17" value="설정" style="rounded=0;whiteSpace=wrap;html=1;fillColor=#f5f5f5;fontColor=#333333;strokeColor=#666666;" vertex="1" parent="1">
          <mxGeometry x="520" y="110" width="130" height="30" as="geometry" />
        </mxCell>
        <mxCell id="Ib-lwfsmfBtbOKuAcP7K-20" value="상태표시줄 알림" style="rounded=0;whiteSpace=wrap;html=1;fillColor=#f5f5f5;fontColor=#333333;strokeColor=#666666;" vertex="1" parent="1">
          <mxGeometry x="550" y="280" width="100" height="20" as="geometry" />
        </mxCell>
        <mxCell id="Ib-lwfsmfBtbOKuAcP7K-21" value="앱 위젯" style="rounded=0;whiteSpace=wrap;html=1;fillColor=#f5f5f5;fontColor=#333333;strokeColor=#666666;" vertex="1" parent="1">
          <mxGeometry x="550" y="310" width="100" height="20" as="geometry" />
        </mxCell>
        <mxCell id="Ib-lwfsmfBtbOKuAcP7K-23" value="내 계정" style="rounded=0;whiteSpace=wrap;html=1;fillColor=#f5f5f5;fontColor=#333333;strokeColor=#666666;" vertex="1" parent="1">
          <mxGeometry x="550" y="190" width="100" height="20" as="geometry" />
        </mxCell>
        <mxCell id="Ib-lwfsmfBtbOKuAcP7K-24" value="로그인" style="rounded=0;whiteSpace=wrap;html=1;fontSize=11;fillColor=light-dark(#ffffff, #1a1a1a);fontColor=#333333;strokeColor=#666666;" vertex="1" parent="1">
          <mxGeometry x="555" y="230" width="90" height="20" as="geometry" />
        </mxCell>
        <mxCell id="Ib-lwfsmfBtbOKuAcP7K-25" value="D-Day 수정" style="rounded=0;whiteSpace=wrap;html=1;fontSize=11;fillColor=light-dark(#ffffff, #1a1a1a);fontColor=#333333;strokeColor=#666666;gradientColor=none;" vertex="1" parent="1">
          <mxGeometry x="225" y="210" width="90" height="20" as="geometry" />
        </mxCell>
        <mxCell id="Ib-lwfsmfBtbOKuAcP7K-26" value="D-Day 삭제" style="rounded=0;whiteSpace=wrap;html=1;fontSize=11;fillColor=light-dark(#ffffff, #1a1a1a);fontColor=#333333;strokeColor=#666666;gradientColor=none;" vertex="1" parent="1">
          <mxGeometry x="225" y="230" width="90" height="20" as="geometry" />
        </mxCell>
        <mxCell id="Ib-lwfsmfBtbOKuAcP7K-27" value="회원가입" style="rounded=0;whiteSpace=wrap;html=1;fontSize=11;fillColor=light-dark(#ffffff, #1a1a1a);fontColor=#333333;strokeColor=#666666;" vertex="1" parent="1">
          <mxGeometry x="555" y="210" width="90" height="20" as="geometry" />
        </mxCell>
        <mxCell id="Ib-lwfsmfBtbOKuAcP7K-28" value="계정 정보 수정" style="rounded=0;whiteSpace=wrap;html=1;fontSize=11;fillColor=light-dark(#ffffff, #1a1a1a);fontColor=#333333;strokeColor=#666666;" vertex="1" parent="1">
          <mxGeometry x="555" y="250" width="90" height="20" as="geometry" />
        </mxCell>
        <mxCell id="Ib-lwfsmfBtbOKuAcP7K-31" value="데이터 동기화" style="rounded=0;whiteSpace=wrap;html=1;fillColor=#f5f5f5;fontColor=#333333;strokeColor=#666666;" vertex="1" parent="1">
          <mxGeometry x="550" y="160" width="100" height="20" as="geometry" />
        </mxCell>
      </root>
    </mxGraphModel>
  </diagram>
</mxfile>
